<mxfile host="app.diagrams.net" agent="Mozilla/5.0 (Windows NT 10.0; Win64; x64) AppleWebKit/537.36 (KHTML, like Gecko) Chrome/132.0.0.0 Safari/537.36" version="26.0.14">
  <diagram name="Page-1" id="5f0bae14-7c28-e335-631c-24af17079c00">
    <mxGraphModel dx="1434" dy="772" grid="1" gridSize="10" guides="1" tooltips="1" connect="1" arrows="1" fold="1" page="1" pageScale="1" pageWidth="1100" pageHeight="850" background="none" math="0" shadow="0">
      <root>
        <mxCell id="0" />
        <mxCell id="1" parent="0" />
        <mxCell id="9L9lPLj24FGyvi-ZWawi-1" value="Domain" style="rounded=0;whiteSpace=wrap;html=1;align=left;verticalAlign=top;" vertex="1" parent="1">
          <mxGeometry x="420" y="70" width="140" height="190" as="geometry" />
        </mxCell>
        <mxCell id="9L9lPLj24FGyvi-ZWawi-2" value="Infrastructure" style="rounded=0;whiteSpace=wrap;html=1;" vertex="1" parent="1">
          <mxGeometry x="430" y="100" width="120" height="30" as="geometry" />
        </mxCell>
        <mxCell id="9L9lPLj24FGyvi-ZWawi-3" value="Services" style="rounded=0;whiteSpace=wrap;html=1;" vertex="1" parent="1">
          <mxGeometry x="430" y="140" width="120" height="30" as="geometry" />
        </mxCell>
        <mxCell id="9L9lPLj24FGyvi-ZWawi-4" value="Models" style="rounded=0;whiteSpace=wrap;html=1;" vertex="1" parent="1">
          <mxGeometry x="430" y="180" width="120" height="30" as="geometry" />
        </mxCell>
        <mxCell id="9L9lPLj24FGyvi-ZWawi-5" value="MVC" style="rounded=0;whiteSpace=wrap;html=1;align=left;verticalAlign=top;" vertex="1" parent="1">
          <mxGeometry x="220" y="70" width="140" height="150" as="geometry" />
        </mxCell>
        <mxCell id="9L9lPLj24FGyvi-ZWawi-6" value="Controlers" style="rounded=0;whiteSpace=wrap;html=1;" vertex="1" parent="1">
          <mxGeometry x="230" y="100" width="120" height="30" as="geometry" />
        </mxCell>
        <mxCell id="9L9lPLj24FGyvi-ZWawi-7" value="Models (DTOs)" style="rounded=0;whiteSpace=wrap;html=1;" vertex="1" parent="1">
          <mxGeometry x="230" y="140" width="120" height="30" as="geometry" />
        </mxCell>
        <mxCell id="9L9lPLj24FGyvi-ZWawi-8" value="Database/Repository" style="rounded=0;whiteSpace=wrap;html=1;" vertex="1" parent="1">
          <mxGeometry x="230" y="180" width="120" height="30" as="geometry" />
        </mxCell>
        <mxCell id="9L9lPLj24FGyvi-ZWawi-9" value="InMemory" style="rounded=0;whiteSpace=wrap;html=1;" vertex="1" parent="1">
          <mxGeometry x="430" y="220" width="120" height="30" as="geometry" />
        </mxCell>
      </root>
    </mxGraphModel>
  </diagram>
</mxfile>
